PathFileType	4	(X/Y/Z)	C:/Users/dbak576/Desktop/Duncan Bakke Modelling Files/H25s1/Static_H25s1.trc	
DataRate	CameraRate	NumFrames	NumMarkers	Units	OrigDataRate	OrigDataStartFrame	OrigNumFrames	
200.00	200.00	6	62	mm	200.00	186	296	
Frame#	Time	LFHD			RFHD			LBHD			RBHD			C7			T10			CLAV			STRN			RBack			LASI			RASI			LPSI			RPSI			RACR1			RUA1			RElbow			RElbowM			RFA1			RWRR			RWRU			RCAR			LACR1			LUA1			LElbow			LElbowM			LFA1			LWRR			LWRU			LCAR			RTH1			RTH3			RTH2			RTH4			RLFC			RMFC			RTB1			RTB3			RTB2			RTB4			RLMAL			RMMAL			RCAL			RMT1			RMT5			RToe			LTH1			LTH3			LTH2			LTH4			LLFC			LMFC			LTB1			LTB3			LTB2			LTB4			LLMAL			LMMAL			LCAL			LMT1			LMT5			LToe			*61			
		X1	Y1	Z1	X2	Y2	Z2	X3	Y3	Z3	X4	Y4	Z4	X5	Y5	Z5	X6	Y6	Z6	X7	Y7	Z7	X8	Y8	Z8	X9	Y9	Z9	X10	Y10	Z10	X11	Y11	Z11	X12	Y12	Z12	X13	Y13	Z13	X14	Y14	Z14	X15	Y15	Z15	X16	Y16	Z16	X17	Y17	Z17	X18	Y18	Z18	X19	Y19	Z19	X20	Y20	Z20	X21	Y21	Z21	X22	Y22	Z22	X23	Y23	Z23	X24	Y24	Z24	X25	Y25	Z25	X26	Y26	Z26	X27	Y27	Z27	X28	Y28	Z28	X29	Y29	Z29	X30	Y30	Z30	X31	Y31	Z31	X32	Y32	Z32	X33	Y33	Z33	X34	Y34	Z34	X35	Y35	Z35	X36	Y36	Z36	X37	Y37	Z37	X38	Y38	Z38	X39	Y39	Z39	X40	Y40	Z40	X41	Y41	Z41	X42	Y42	Z42	X43	Y43	Z43	X44	Y44	Z44	X45	Y45	Z45	X46	Y46	Z46	X47	Y47	Z47	X48	Y48	Z48	X49	Y49	Z49	X50	Y50	Z50	X51	Y51	Z51	X52	Y52	Z52	X53	Y53	Z53	X54	Y54	Z54	X55	Y55	Z55	X56	Y56	Z56	X57	Y57	Z57	X58	Y58	Z58	X59	Y59	Z59	X60	Y60	Z60	X61	Y61	Z61	X62	Y62	Z62	

186	0.925	-64.39752	-267.48981	1731.74756	40.86602	-273.84286	1726.33130	-94.27579	-434.17642	1724.06689	47.16312	-445.82013	1720.25183	-22.51813	-515.40662	1572.16211	-30.80919	-512.90979	1210.35339	-36.52846	-335.66360	1504.84937	-15.88523	-250.64810	1340.16797	86.12119	-579.88275	1470.46704	-174.31186	-296.08115	1049.06250	144.84093	-325.42838	1050.91956	-87.27402	-524.97308	1096.87231	21.94308	-531.87018	1085.69385	132.85526	-432.80316	1569.87939	282.87582	-425.07248	1519.87500	429.99078	-395.90353	1455.91089	400.61789	-321.80322	1410.08142	564.34210	-339.85004	1502.39087	684.97430	-263.48734	1514.23901	697.22223	-284.29480	1431.69873	746.86243	-280.48355	1478.82458	-186.32364	-441.28351	1559.09265	-334.83109	-428.00229	1522.09131	-491.45712	-392.98071	1474.00378	-467.74451	-331.50723	1413.38672	-625.48132	-337.40384	1513.78467	-735.53137	-261.47729	1519.40955	-742.28076	-302.52286	1436.88171	-792.34216	-289.99475	1494.20166	192.88274	-460.83530	834.62103	197.13936	-463.91452	662.19165	209.54805	-405.32651	747.13129	195.20062	-464.49744	746.20996	201.18805	-466.06229	522.93103	52.05927	-463.40436	502.10706	133.96355	-422.57129	367.33859	138.61993	-451.52136	196.81841	197.79054	-440.98178	285.03778	135.59645	-437.24622	281.70453	187.95396	-516.00494	80.52714	96.45578	-482.88852	99.42904	150.15776	-575.98480	43.84295	135.98068	-354.30762	52.03695	231.19244	-397.05417	32.63820	149.33710	-300.82388	33.65882	-243.40773	-392.89673	833.84973	-224.19272	-412.11685	661.39532	-219.36346	-345.73535	742.52112	-238.37064	-401.52191	748.43671	-209.01447	-459.02609	516.68976	-67.06828	-452.16104	504.99518	-115.09618	-431.35834	361.67740	-120.90559	-452.74924	191.71797	-177.60457	-426.06601	275.94955	-117.02106	-444.41269	277.21783	-186.25948	-504.69333	72.82275	-87.30682	-481.60852	91.15496	-149.66969	-569.73724	44.82394	-133.61668	-342.21234	45.01033	-224.32742	-390.15829	28.91372	-153.76553	-285.45529	27.18855	-221.70122	-462.00574	917.01050 
187	0.930	-64.43031	-267.51471	1731.81836	40.88564	-273.84235	1726.33655	-94.28588	-434.18057	1724.12195	47.15809	-445.82285	1720.25403	-22.52938	-515.35175	1572.15735	-30.78343	-512.81927	1210.33057	-36.51424	-335.60812	1504.84863	-15.89329	-250.55637	1340.24414	86.13344	-579.82019	1470.47546	-174.31750	-296.07748	1049.08215	144.82628	-325.39536	1050.89453	-87.27872	-524.97229	1096.89172	21.96194	-531.76514	1085.68530	132.86787	-432.79965	1569.90784	283.03082	-424.98608	1519.79395	429.95520	-395.82803	1455.89148	400.61163	-321.80228	1410.03979	564.35773	-339.76892	1502.40161	684.96991	-263.42303	1514.21570	697.23596	-284.29352	1431.72107	746.87109	-280.43637	1478.85022	-186.31082	-441.23987	1559.04541	-334.83051	-427.93204	1522.10278	-491.49326	-392.94904	1473.99023	-467.72092	-331.46432	1413.35730	-625.47870	-337.33115	1513.69214	-735.54279	-261.45792	1519.35608	-742.38422	-302.53693	1436.92004	-792.34155	-289.92578	1494.08618	192.84009	-460.82037	834.62671	197.10730	-464.04364	662.05609	209.54614	-405.32568	747.12939	195.20732	-464.48172	746.19989	201.20148	-466.02118	522.93726	52.06077	-463.40158	502.10602	133.93097	-422.57755	367.34479	138.62137	-451.50928	196.80470	197.79118	-440.97977	285.03510	135.59550	-437.25058	281.70557	187.95442	-516.00610	80.52183	96.44393	-482.88788	99.45013	150.18967	-575.98383	43.84360	135.99413	-354.32034	52.01913	231.19727	-397.05838	32.62719	149.34659	-300.81830	33.66695	-243.41119	-392.89136	833.85156	-224.17603	-412.07648	661.37933	-219.36903	-345.73575	742.52698	-238.32646	-401.41080	748.54248	-209.01434	-459.02597	516.68933	-67.11233	-452.14914	504.98270	-115.10086	-431.21887	361.64172	-120.96997	-452.70148	191.66948	-177.61847	-426.02344	275.94962	-117.00758	-444.41281	277.22723	-186.25237	-504.69299	72.88316	-87.31538	-481.60263	91.15186	-149.65953	-569.71649	44.80537	-133.61374	-342.21710	45.00940	-224.44386	-390.20599	28.92924	-153.73611	-285.46771	27.18272	-221.73999	-461.92905	917.03705 
188	0.935	-64.36958	-267.49756	1731.82385	40.88499	-273.84094	1726.36292	-94.30588	-434.12808	1724.10486	47.15624	-445.82330	1720.25647	-22.54056	-515.33203	1572.17126	-30.77973	-512.80945	1210.35388	-36.47285	-335.54565	1504.89075	-15.88122	-250.50772	1340.28235	86.09561	-579.74115	1470.45837	-174.31387	-296.07974	1049.08142	144.80357	-325.34601	1050.88916	-87.27187	-524.95715	1096.88123	21.91932	-531.75879	1085.68835	132.81972	-432.77811	1569.85107	283.04266	-424.96210	1519.82031	429.98456	-395.75519	1455.87427	400.64355	-321.80374	1410.04041	564.18982	-339.71716	1502.25415	684.94244	-263.39883	1514.18481	697.22339	-284.19217	1431.70020	746.85461	-280.37814	1478.80273	-186.34935	-441.21768	1559.11694	-334.79413	-427.86230	1522.08105	-491.47891	-392.94110	1473.95435	-467.72403	-331.41446	1413.35278	-625.47308	-337.29385	1513.66553	-735.55237	-261.40604	1519.27161	-742.29559	-301.78516	1436.48767	-792.41943	-289.89609	1494.07495	192.83549	-460.81964	834.62549	197.11420	-463.93298	662.20099	209.55013	-405.24997	747.13562	195.20084	-464.48904	746.20703	201.20694	-466.01794	522.93909	52.07666	-463.38986	502.11258	133.93866	-422.57553	367.36353	138.61739	-451.52045	196.82045	197.80270	-440.97495	284.98795	135.59526	-437.24945	281.70749	187.94716	-516.00897	80.53807	96.47588	-482.89386	99.45779	150.11449	-575.97784	43.86296	135.97792	-354.30954	52.03176	231.19650	-397.06198	32.62687	149.33643	-300.81741	33.67987	-243.44270	-392.88504	833.86121	-224.17747	-412.07443	661.38824	-219.36734	-345.73602	742.52405	-238.40356	-401.49277	748.43890	-209.02261	-458.95767	516.69067	-67.08262	-452.13242	504.98212	-115.09129	-431.33292	361.67264	-120.88510	-452.69962	191.70691	-177.60286	-425.99554	275.95435	-117.04958	-444.41846	277.19778	-186.25070	-504.71890	72.83049	-87.30872	-481.60730	91.15439	-149.65280	-569.68237	44.79157	-133.59973	-342.19513	45.02781	-224.33247	-390.14331	28.93168	-153.69829	-285.47507	27.19357	-221.75754	-461.91763	917.01447 
189	0.940	-64.32782	-267.49207	1731.91992	40.89231	-273.86432	1726.39185	-94.36372	-434.14832	1724.15552	47.16141	-445.82510	1720.27515	-22.55424	-515.27844	1572.16467	-30.79328	-512.76294	1210.35632	-36.46214	-335.48688	1504.91162	-15.83165	-250.37524	1340.38232	86.12328	-579.67651	1470.44141	-174.31221	-296.08011	1049.08008	144.83563	-325.32538	1050.89758	-87.30997	-524.94586	1096.90369	21.94486	-531.74756	1085.68762	132.85312	-432.73291	1569.86902	282.90143	-424.97028	1519.80481	429.95493	-395.67383	1455.87048	400.59689	-321.77045	1410.04077	564.18817	-339.63208	1502.23950	684.95233	-263.39838	1514.18469	697.23401	-284.15329	1431.68591	746.85046	-280.29919	1478.76440	-186.27527	-441.18048	1559.03687	-334.77789	-427.83075	1522.03418	-491.45514	-392.92493	1473.93677	-467.67950	-331.32962	1413.31421	-625.47156	-337.29382	1513.64124	-735.56110	-261.38611	1519.20300	-742.24255	-301.71878	1436.43872	-792.47675	-289.88416	1494.01978	192.83708	-460.82013	834.62555	196.77989	-463.60733	662.28510	209.51341	-405.21359	747.14630	195.16222	-464.46021	746.19958	201.18893	-465.99677	522.92761	52.06801	-463.39758	502.10995	133.92860	-422.57672	367.34409	138.63484	-451.52106	196.77873	197.77762	-440.96887	285.01074	135.60655	-437.23901	281.68454	187.97141	-515.99170	80.57726	96.49716	-482.87457	99.46902	150.12592	-575.97522	43.88431	135.99007	-354.32248	52.02115	231.18777	-397.07980	32.63206	149.31633	-300.85239	33.67479	-243.44565	-392.88504	833.86267	-224.18130	-412.07758	661.39081	-219.38071	-345.66602	742.53528	-238.37895	-401.47427	748.34613	-209.02283	-458.95242	516.69000	-67.08389	-452.19839	504.99100	-115.10356	-431.22388	361.62888	-121.01363	-452.67938	191.61797	-177.60635	-426.04120	275.95682	-117.05060	-444.41476	277.19714	-186.24727	-504.68079	72.89306	-87.32084	-481.61478	91.15479	-149.63930	-569.68518	44.78035	-133.59512	-342.19208	45.02147	-224.49550	-390.25314	28.94883	-153.74074	-285.48996	27.17923	-221.76144	-461.92883	917.01068 
190	0.945	-64.27135	-267.48242	1731.94849	40.89529	-273.86285	1726.42664	-94.36390	-434.14853	1724.16101	47.16232	-445.82504	1720.27625	-22.55068	-515.22491	1572.16772	-30.82683	-512.74200	1210.35559	-36.45298	-335.43051	1504.93213	-15.80698	-250.28241	1340.42285	86.08834	-579.61127	1470.46375	-174.34955	-296.00339	1049.09985	144.83626	-325.22586	1050.91809	-87.33116	-524.91614	1096.90967	21.95677	-531.69836	1085.68091	132.86884	-432.67236	1569.90515	282.88904	-424.92249	1519.79968	429.95078	-395.67096	1455.87048	400.62180	-321.70163	1410.07385	564.19293	-339.55026	1502.20850	684.95355	-263.34192	1514.15771	697.24573	-284.09424	1431.63098	746.80084	-280.22919	1478.74707	-186.31462	-441.16266	1559.07983	-334.81039	-427.77325	1522.03369	-491.48087	-392.89151	1473.90283	-467.64764	-331.23618	1413.28699	-625.50079	-337.25259	1513.65369	-735.80493	-261.34558	1519.31348	-742.16083	-302.35776	1436.68640	-792.38983	-289.81650	1493.99011	192.79689	-460.75476	834.63116	197.08234	-463.83694	662.21741	209.50156	-405.21231	747.15894	195.07207	-464.42386	746.18707	201.14494	-465.93756	522.93811	52.05207	-463.34506	502.10699	133.90144	-422.50848	367.35159	138.62677	-451.50784	196.79718	197.80424	-440.97678	285.04523	135.60873	-437.24313	281.68454	187.95093	-516.00793	80.54301	96.44411	-482.74982	99.40892	150.12714	-575.97601	43.88185	135.99350	-354.32407	52.01907	231.19849	-397.06537	32.63253	149.33705	-300.82181	33.68242	-243.45799	-392.88177	833.84204	-224.18639	-412.08145	661.35785	-219.36389	-345.64050	742.48615	-238.39894	-401.45782	748.42755	-209.06396	-458.93704	516.67908	-67.07121	-452.15329	504.98654	-115.15939	-431.25729	361.70261	-121.03618	-452.67426	191.60959	-177.61168	-425.97565	275.95996	-117.01488	-444.41638	277.22549	-186.39276	-504.83154	72.81345	-87.32236	-481.61542	91.15474	-149.63855	-569.68671	44.78021	-133.60008	-342.16107	45.02282	-224.05276	-390.02509	28.92930	-153.72968	-285.47028	27.20045	-221.83382	-461.87057	917.00183 
191	0.950	-64.27816	-267.49170	1731.98523	40.94665	-273.84317	1726.47961	-94.29428	-434.13974	1724.13745	47.15440	-445.82474	1720.30127	-22.54770	-515.21692	1572.15759	-30.81507	-512.71179	1210.35437	-36.40630	-335.38196	1504.93274	-15.74524	-250.16043	1340.49487	86.10082	-579.56952	1470.42590	-174.35492	-295.99701	1049.10339	144.81026	-325.21313	1050.90186	-87.32344	-524.91150	1096.90112	21.92338	-531.69330	1085.68176	132.88484	-432.67993	1569.93225	282.91455	-424.91254	1519.80945	429.93787	-395.60468	1455.85608	400.59790	-321.68164	1410.08252	564.10266	-339.54709	1502.16638	684.93292	-263.27197	1514.13501	697.22443	-283.99200	1431.61658	746.81519	-280.19794	1478.72314	-186.26433	-441.12665	1559.07288	-334.80203	-427.73096	1522.05017	-491.49368	-392.89401	1473.88232	-467.65399	-331.13809	1413.26965	-625.47736	-337.22696	1513.57166	-735.55475	-261.28088	1519.11133	-742.19153	-302.38321	1436.67078	-792.37531	-289.72675	1493.93506	192.78049	-460.75488	834.65393	197.12737	-463.82465	662.21564	209.51532	-405.18289	747.16711	195.16002	-464.41949	746.21667	201.14056	-465.93210	522.93781	52.05294	-463.33563	502.10519	133.90282	-422.57166	367.36649	138.61687	-451.52032	196.82152	197.80339	-440.98047	285.04388	135.60454	-437.24213	281.68317	187.94952	-516.00482	80.55490	96.50216	-482.85641	99.44061	150.17287	-576.00378	43.87230	135.97263	-354.31009	52.03041	231.19835	-397.06204	32.62967	149.34174	-300.84717	33.67209	-243.47244	-392.85748	833.84009	-224.19623	-412.04214	661.38855	-219.34120	-345.63809	742.47046	-238.42981	-401.46121	748.40894	-209.04323	-458.93768	516.71533	-67.07439	-452.13177	504.98410	-115.16966	-431.25250	361.63696	-120.90626	-452.71973	191.72392	-177.60123	-425.98688	275.95920	-117.02773	-444.37369	277.23425	-186.26233	-504.74933	72.86855	-87.30854	-481.60910	91.15486	-149.62918	-569.68469	44.80103	-133.61639	-342.18552	45.01319	-224.28874	-390.15021	28.92555	-153.72171	-285.47198	27.18473	-221.83961	-461.85257	916.99884 
